<svg xmlns="http://www.w3.org/2000/svg" aria-hidden="true" style="width:0;height:0;position:absolute;overflow:hidden"><defs><symbol id="icon-burger" viewBox="0 0 32 32"><path stroke-linecap="round" stroke-linejoin="round" stroke-width="2.286" d="M22.667 13.333H4M28 8H4m24 10.667H4M22.667 24H4"/></symbol><symbol id="icon-arrow-up" viewBox="0 0 32 32"><path d="M4.5 19.6 15.7 8.367c.133-.133.278-.228.433-.283s.322-.084.5-.084.345.028.5.084.3.149.433.283L28.799 19.6c.311.311.467.7.467 1.167s-.167.867-.5 1.2c-.333.333-.722.5-1.167.5s-.833-.167-1.167-.5l-9.8-9.8-9.8 9.8c-.311.311-.694.467-1.149.467s-.851-.167-1.184-.5-.5-.722-.5-1.167c0-.444.167-.833.5-1.167z"/></symbol><symbol id="icon-plug" viewBox="0 0 35 32"><path d="M34.352 7.713A16.665 16.665 0 0 0 32 6.712v19.742a16.089 16.089 0 0 0-5.6-1.017c-3.04 0-6.048.886-8.8 2.593V8.174c-2.592-1.526-5.584-2.429-8.8-2.429-2.864 0-5.568.722-7.952 1.969C.32 7.977 0 8.551 0 9.158v19.824a1.6 1.6 0 0 0 1.6 1.625c.256 0 .512-.066.768-.197 1.936-1.034 4.112-1.69 6.432-1.69 3.312 0 6.368 1.346 8.8 3.282 2.432-1.936 5.488-3.282 8.8-3.282 2.32 0 4.496.656 6.432 1.707.256.131.512.197.768.197.832 0 1.6-.673 1.6-1.625V9.159c0-.607-.32-1.182-.848-1.444zM14.4 26.453c-1.824-.673-3.696-1.017-5.6-1.017s-3.776.345-5.6 1.017V10.19a13.941 13.941 0 0 1 5.6-1.165c1.92 0 3.824.41 5.6 1.182v16.246zM28.8 0l-8 8.205v15.59l8-7.385V0z"/></symbol><symbol id="icon-logo" viewBox="0 0 32 32"><path fill="#f6f6f6" d="m0 0 16.343 16.171L32 32V0H0z" style="fill:var(--color1,#f6f6f6)"/><path fill="#f6f6f6" d="M4.457 4.229 16.4 16.058l11.257 11.486h-23.2V4.23z" style="fill:var(--color1,#f6f6f6)"/><path fill="#4f2ee8" d="M27.733 27.618 15.79 15.789 4.533 4.303h23.2v23.314z" style="fill:var(--color2,#4f2ee8)"/><path fill="#4f2ee8" d="m9.257 9.029 13.6 13.6h-13.6v-13.6z" style="fill:var(--color2,#4f2ee8)"/><path fill="#f6f6f6" d="m9.257 9.029 13.6 13.6v-13.6h-13.6z" style="fill:var(--color1,#f6f6f6)"/></symbol><symbol id="icon-user" viewBox="0 0 32 32"><path d="M5.333 29.333a10.662 10.662 0 0 1 18.208-7.543c2 2 3.124 4.714 3.124 7.543H5.332zm10.667-12c-4.42 0-8-3.58-8-8s3.58-8 8-8 8 3.58 8 8-3.58 8-8 8z"/></symbol><symbol id="icon-dump" viewBox="0 0 32 32"><path fill="#4f2ee8" d="M32 16c0 8.837-7.163 16-16 16S0 24.837 0 16 7.163 0 16 0s16 7.163 16 16z" style="fill:var(--color2,#4f2ee8)"/><path fill="none" stroke="#fff" stroke-linecap="round" stroke-linejoin="round" stroke-width="1.684" d="M13.684 9.053h4.632m-9.263 2.315h13.895m-1.544 0-.541 8.12c-.081 1.218-.122 1.827-.385 2.289a2.322 2.322 0 0 1-1.002.938c-.478.232-1.089.232-2.31.232h-2.33c-1.221 0-1.832 0-2.31-.232a2.31 2.31 0 0 1-1.002-.938c-.263-.462-.304-1.071-.385-2.289l-.541-8.12m3.858 3.474v3.86m3.088-3.86v3.86" style="stroke:var(--color3,#fff)"/></symbol><symbol id="icon-lock" viewBox="0 0 32 32"><path stroke-linecap="round" stroke-linejoin="round" stroke-width="2.286" d="M22.667 14.667v-4a6.667 6.667 0 0 0-13.334 0v4M10.4 28h11.2c2.24 0 3.36 0 4.216-.436a3.991 3.991 0 0 0 1.748-1.748C28 24.96 28 23.84 28 21.6v-.533c0-2.24 0-3.36-.436-4.216a3.991 3.991 0 0 0-1.748-1.748c-.856-.436-1.976-.436-4.216-.436H10.4c-2.24 0-3.36 0-4.216.436a3.996 3.996 0 0 0-1.748 1.748C4 17.707 4 18.827 4 21.067v.533c0 2.24 0 3.36.436 4.216a3.991 3.991 0 0 0 1.748 1.748C7.04 28 8.16 28 10.4 28z"/></symbol><symbol id="icon-mail" viewBox="0 0 32 32"><path stroke-linecap="round" stroke-linejoin="round" stroke-width="2.286" d="m28.666 24-8.857-8m-7.619 0-8.857 8M2.667 9.333l10.887 7.621c.882.617 1.322.926 1.802 1.045.423.106.866.106 1.29 0 .479-.12.92-.428 1.802-1.045l10.887-7.621M9.067 26.667h13.867c2.24 0 3.36 0 4.216-.436a3.996 3.996 0 0 0 1.748-1.748c.436-.856.436-1.976.436-4.216v-8.533c0-2.24 0-3.36-.436-4.216A3.991 3.991 0 0 0 27.15 5.77c-.856-.436-1.976-.436-4.216-.436H9.067c-2.24 0-3.36 0-4.216.436a3.991 3.991 0 0 0-1.748 1.748c-.436.856-.436 1.976-.436 4.216v8.533c0 2.24 0 3.36.436 4.216a3.996 3.996 0 0 0 1.748 1.748c.856.436 1.976.436 4.216.436z"/></symbol><symbol id="icon-modal-close" viewBox="0 0 32 32"><path stroke-linecap="round" stroke-linejoin="round" stroke-width="3.429" d="M8 24 24 8m0 16L8 8"/></symbol></defs></svg>